<svg xmlns="http://www.w3.org/2000/svg" viewBox="0 0 800 300" width="800" height="300">
  <defs>

    <!-- SKY GRADIENT -->
    <linearGradient id="sky" x1="0" y1="0" x2="0" y2="1">
      <stop offset="0%"   stop-color="#020408"/>
      <stop offset="30%"  stop-color="#05090f"/>
      <stop offset="60%"  stop-color="#091525"/>
      <stop offset="80%"  stop-color="#0f2235"/>
      <stop offset="90%"  stop-color="#152e28"/>
      <stop offset="100%" stop-color="#0a1810"/>
    </linearGradient>

    <!-- MOON GLOW -->
    <radialGradient id="moonGlow" cx="50%" cy="50%" r="50%">
      <stop offset="0%"   stop-color="#c8e0ff" stop-opacity="0.15"/>
      <stop offset="100%" stop-color="#c8e0ff" stop-opacity="0"/>
    </radialGradient>

    <!-- WATER REFLECTION -->
    <linearGradient id="water" x1="0" y1="0" x2="0" y2="1">
      <stop offset="0%"   stop-color="#7eb8ff" stop-opacity="0.08"/>
      <stop offset="100%" stop-color="#0a1810" stop-opacity="0.6"/>
    </linearGradient>

    <!-- TRAIN HEADLIGHT CONE -->
    <linearGradient id="hlCone" x1="0" y1="0" x2="1" y2="0">
      <stop offset="0%"   stop-color="#c8e8ff" stop-opacity="0.35"/>
      <stop offset="100%" stop-color="#c8e8ff" stop-opacity="0"/>
    </linearGradient>

    <!-- CAR HEADLIGHT CONE -->
    <linearGradient id="carHL" x1="0" y1="0" x2="1" y2="0">
      <stop offset="0%"   stop-color="#fffff0" stop-opacity="0.28"/>
      <stop offset="100%" stop-color="#fffff0" stop-opacity="0"/>
    </linearGradient>

    <!-- CLIP for scene -->
    <clipPath id="sceneClip">
      <rect width="800" height="300"/>
    </clipPath>

    <!-- TRAIN MOVE: left=-320 to right=820, 22s loop -->
    <style>
      /* ── STARS ── */
      .st { animation: twinkle linear infinite; }
      @keyframes twinkle {
        0%,100% { opacity: 0.15; }
        50%      { opacity: 1;    }
      }

      /* ── MOON PULSE ── */
      .moon-glow { animation: moonPulse 6s ease-in-out infinite; }
      @keyframes moonPulse {
        0%,100% { opacity: 0.6; }
        50%      { opacity: 1;   }
      }

      /* ── RAIN DROPS ── */
      .rd { animation: rainFall linear infinite; }
      @keyframes rainFall {
        0%   { transform: translateY(-20px); opacity: 0;   }
        8%   { opacity: 0.55; }
        90%  { opacity: 0.3;  }
        100% { transform: translateY(310px); opacity: 0;   }
      }

      /* ── WATER SHIMMER LINES ── */
      .wl { animation: waterShimmer ease-in-out infinite; }
      @keyframes waterShimmer {
        0%,100% { opacity: 0.25; transform: scaleX(0.82); }
        50%      { opacity: 0.9;  transform: scaleX(1.06); }
      }

      /* ── STEAM PUFFS ── */
      .sp { animation: steamRise ease-out infinite; }
      @keyframes steamRise {
        0%   { opacity: 0;    transform: translate(0px, 0px)   scale(0.5); }
        15%  { opacity: 0.55; }
        100% { opacity: 0;    transform: translate(-18px,-36px) scale(1.9); }
      }

      /* ── TRAIN TRANSLATE ── */
      .train { animation: trainPass 22s linear infinite; }
      @keyframes trainPass {
        0%   { transform: translateX(-330px); }
        100% { transform: translateX(830px);  }
      }

      /* ── CAR TRANSLATE ── */
      .car { animation: carPass 13s linear infinite; }
      @keyframes carPass {
        0%   { transform: translateX(830px);  opacity: 0; }
        6%   { opacity: 1; }
        92%  { opacity: 1; }
        100% { transform: translateX(-200px); opacity: 0; }
      }

      /* ── SPEED LINES ── */
      .sl { animation: speedLine linear infinite; }
      @keyframes speedLine {
        0%   { transform: translateX(820px); opacity: 0;   }
        10%  { opacity: 0.65; }
        100% { transform: translateX(-160px); opacity: 0; }
      }

      /* ── HEADLIGHT FLICKER ── */
      .hlf { animation: hlFlicker 0.25s step-end infinite; }
      @keyframes hlFlicker {
        0%,91%,100% { opacity: 1;    }
        95%          { opacity: 0.82; }
      }

      /* ── SCAN LINE sweep ── */
      .scanSweep { animation: scanSweep 5s ease-in-out infinite; }
      @keyframes scanSweep {
        0%   { transform: translateX(-820px); opacity: 0;   }
        10%  { opacity: 0.6; }
        90%  { opacity: 0.4; }
        100% { transform: translateX(820px);  opacity: 0;   }
      }
    </style>
  </defs>

  <g clip-path="url(#sceneClip)">

    <!-- ── SKY ── -->
    <rect width="800" height="300" fill="url(#sky)"/>

    <!-- ── MOON GLOW ── -->
    <circle class="moon-glow" cx="660" cy="48" r="52" fill="url(#moonGlow)"/>

    <!-- ── MOON ── -->
    <circle cx="660" cy="48" r="22" fill="#c0d8f0"/>
    <circle cx="654" cy="44" r="20" fill="#d8eaff"/>
    <!-- crater detail -->
    <circle cx="666" cy="42" r="3" fill="#b8cce0" opacity="0.5"/>
    <circle cx="655" cy="52" r="2" fill="#b8cce0" opacity="0.4"/>

    <!-- ── STARS ── -->
    <!-- hand-placed stars with varied anim-duration/delay for natural feel -->
    <circle class="st" cx="30"  cy="18" r="1"   fill="#fff" style="animation-duration:2.8s;animation-delay:0s"/>
    <circle class="st" cx="75"  cy="9"  r="1.5" fill="#fff" style="animation-duration:3.5s;animation-delay:0.4s"/>
    <circle class="st" cx="120" cy="22" r="1"   fill="#fff" style="animation-duration:2.2s;animation-delay:1.1s"/>
    <circle class="st" cx="158" cy="8"  r="1"   fill="#fff" style="animation-duration:4.1s;animation-delay:0.7s"/>
    <circle class="st" cx="200" cy="19" r="1.5" fill="#fff" style="animation-duration:3.0s;animation-delay:1.8s"/>
    <circle class="st" cx="245" cy="6"  r="1"   fill="#fff" style="animation-duration:2.5s;animation-delay:0.2s"/>
    <circle class="st" cx="290" cy="25" r="1"   fill="#fff" style="animation-duration:3.8s;animation-delay:2.3s"/>
    <circle class="st" cx="330" cy="11" r="1"   fill="#fff" style="animation-duration:2.9s;animation-delay:0.9s"/>
    <circle class="st" cx="375" cy="20" r="1.5" fill="#fff" style="animation-duration:4.4s;animation-delay:1.5s"/>
    <circle class="st" cx="415" cy="7"  r="1"   fill="#fff" style="animation-duration:3.2s;animation-delay:0.3s"/>
    <circle class="st" cx="460" cy="15" r="1"   fill="#fff" style="animation-duration:2.6s;animation-delay:2.0s"/>
    <circle class="st" cx="500" cy="28" r="1.5" fill="#fff" style="animation-duration:3.7s;animation-delay:0.6s"/>
    <circle class="st" cx="545" cy="10" r="1"   fill="#fff" style="animation-duration:4.0s;animation-delay:1.3s"/>
    <circle class="st" cx="590" cy="22" r="1"   fill="#fff" style="animation-duration:2.4s;animation-delay:2.7s"/>
    <circle class="st" cx="620" cy="14" r="1.5" fill="#fff" style="animation-duration:3.3s;animation-delay:0.1s"/>
    <circle class="st" cx="700" cy="30" r="1"   fill="#fff" style="animation-duration:2.7s;animation-delay:1.9s"/>
    <circle class="st" cx="735" cy="12" r="1"   fill="#fff" style="animation-duration:4.2s;animation-delay:0.8s"/>
    <circle class="st" cx="770" cy="24" r="1.5" fill="#fff" style="animation-duration:3.1s;animation-delay:1.6s"/>
    <circle class="st" cx="48"  cy="38" r="1"   fill="#fff" style="animation-duration:3.6s;animation-delay:2.1s"/>
    <circle class="st" cx="145" cy="42" r="1"   fill="#fff" style="animation-duration:2.3s;animation-delay:0.5s"/>
    <circle class="st" cx="260" cy="35" r="1"   fill="#fff" style="animation-duration:4.5s;animation-delay:1.0s"/>
    <circle class="st" cx="360" cy="40" r="1.5" fill="#fff" style="animation-duration:3.4s;animation-delay:2.5s"/>
    <circle class="st" cx="470" cy="38" r="1"   fill="#fff" style="animation-duration:2.1s;animation-delay:0.0s"/>
    <circle class="st" cx="560" cy="44" r="1"   fill="#fff" style="animation-duration:3.9s;animation-delay:1.7s"/>
    <circle class="st" cx="690" cy="18" r="1"   fill="#fff" style="animation-duration:2.8s;animation-delay:2.4s"/>
    <circle class="st" cx="760" cy="40" r="1"   fill="#fff" style="animation-duration:4.3s;animation-delay:0.6s"/>

    <!-- ── FAR MOUNTAINS ── -->
    <path d="M0,200 L0,155 L45,108 L100,148 L165,70 L235,125 L295,88 L360,132 L420,60 L490,118 L550,78 L615,128 L670,95 L730,130 L800,110 L800,200Z"
          fill="#0c1e30" opacity="1"/>
    <!-- Snow caps -->
    <path d="M165,70 L180,92 L150,92Z"  fill="#1a3550" opacity="0.9"/>
    <path d="M420,60 L438,84 L402,84Z"  fill="#1a3550" opacity="0.9"/>
    <path d="M550,78 L565,98 L535,98Z"  fill="#1a3550" opacity="0.7"/>
    <path d="M295,88 L307,106 L283,106Z" fill="#1a3550" opacity="0.6"/>

    <!-- ── NEAR MOUNTAINS / HILLS ── -->
    <path d="M0,200 L0,170 L70,148 L148,168 L228,138 L310,162 L390,145 L468,168 L548,150 L625,166 L700,152 L760,163 L800,155 L800,200Z"
          fill="#071412" opacity="1"/>

    <!-- ── TREELINE ── -->
    <path d="
      M0,200 L0,182
      L12,179 L16,172 L20,179 L28,176 L32,169 L36,176
      L44,179 L48,173 L52,168 L56,173 L60,179
      L68,176 L72,170 L76,165 L80,170 L84,176
      L94,179 L98,173 L102,167 L106,173 L110,179
      L120,175 L124,169 L128,163 L132,169 L136,175
      L148,178 L152,172 L156,166 L160,172 L164,178
      L176,175 L180,168 L184,162 L188,168 L192,175
      L204,178 L208,171 L212,165 L216,171 L220,178
      L232,175 L236,168 L240,162 L244,168 L248,175
      L260,178 L264,171 L268,165 L272,171 L276,178
      L288,175 L292,168 L296,161 L300,168 L304,175
      L316,178 L320,171 L324,164 L328,171 L332,178
      L344,174 L348,167 L352,160 L356,167 L360,174
      L372,177 L376,170 L380,163 L384,170 L388,177
      L400,174 L404,167 L408,160 L412,167 L416,174
      L428,177 L432,170 L436,163 L440,170 L444,177
      L456,174 L460,167 L464,160 L468,167 L472,174
      L484,177 L488,170 L492,163 L496,170 L500,177
      L512,174 L516,167 L520,160 L524,167 L528,174
      L540,177 L544,170 L548,163 L552,170 L556,177
      L568,174 L572,167 L576,160 L580,167 L584,174
      L596,177 L600,170 L604,163 L608,170 L612,177
      L624,173 L628,166 L632,159 L636,166 L640,173
      L652,176 L656,169 L660,162 L664,169 L668,176
      L680,173 L684,166 L688,159 L692,166 L696,173
      L708,176 L712,169 L716,162 L720,169 L724,176
      L736,172 L740,165 L744,158 L748,165 L752,172
      L764,175 L768,168 L772,161 L776,168 L780,175
      L792,172 L796,168 L800,172 L800,200Z"
      fill="#030c08"/>

    <!-- ── WATER / LAKE ── -->
    <rect x="0" y="200" width="800" height="22" fill="url(#water)"/>
    <!-- Water shimmer lines -->
    <line class="wl" x1="80"  y1="205" x2="260" y2="205" stroke="#7eb8ff" stroke-width="0.8" style="animation-duration:4s;animation-delay:0s;transform-origin:170px 205px"/>
    <line class="wl" x1="300" y1="208" x2="520" y2="208" stroke="#7eb8ff" stroke-width="0.6" style="animation-duration:5s;animation-delay:1.2s;transform-origin:410px 208px"/>
    <line class="wl" x1="560" y1="205" x2="740" y2="205" stroke="#7eb8ff" stroke-width="0.8" style="animation-duration:3.8s;animation-delay:2.4s;transform-origin:650px 205px"/>
    <line class="wl" x1="40"  y1="212" x2="180" y2="212" stroke="#7eb8ff" stroke-width="0.5" style="animation-duration:4.5s;animation-delay:0.6s;transform-origin:110px 212px"/>
    <line class="wl" x1="350" y1="215" x2="460" y2="215" stroke="#7eb8ff" stroke-width="0.5" style="animation-duration:3.5s;animation-delay:1.8s;transform-origin:405px 215px"/>
    <line class="wl" x1="620" y1="218" x2="790" y2="218" stroke="#7eb8ff" stroke-width="0.4" style="animation-duration:4.8s;animation-delay:3.0s;transform-origin:705px 218px"/>

    <!-- ── GROUND ── -->
    <rect x="0" y="222" width="800" height="78" fill="#080f0a"/>

    <!-- ── RAIL TRACKS ── -->
    <rect x="0" y="221" width="800" height="2"   fill="#1a3525" opacity="0.9"/>
    <rect x="0" y="225" width="800" height="1"   fill="#0f2015" opacity="0.7"/>
    <!-- Sleepers (ties) -->
    <rect x="20"  y="220" width="6" height="8" fill="#0c1a10" opacity="0.6"/>
    <rect x="58"  y="220" width="6" height="8" fill="#0c1a10" opacity="0.6"/>
    <rect x="96"  y="220" width="6" height="8" fill="#0c1a10" opacity="0.6"/>
    <rect x="134" y="220" width="6" height="8" fill="#0c1a10" opacity="0.6"/>
    <rect x="172" y="220" width="6" height="8" fill="#0c1a10" opacity="0.6"/>
    <rect x="210" y="220" width="6" height="8" fill="#0c1a10" opacity="0.6"/>
    <rect x="248" y="220" width="6" height="8" fill="#0c1a10" opacity="0.6"/>
    <rect x="286" y="220" width="6" height="8" fill="#0c1a10" opacity="0.6"/>
    <rect x="324" y="220" width="6" height="8" fill="#0c1a10" opacity="0.6"/>
    <rect x="362" y="220" width="6" height="8" fill="#0c1a10" opacity="0.6"/>
    <rect x="400" y="220" width="6" height="8" fill="#0c1a10" opacity="0.6"/>
    <rect x="438" y="220" width="6" height="8" fill="#0c1a10" opacity="0.6"/>
    <rect x="476" y="220" width="6" height="8" fill="#0c1a10" opacity="0.6"/>
    <rect x="514" y="220" width="6" height="8" fill="#0c1a10" opacity="0.6"/>
    <rect x="552" y="220" width="6" height="8" fill="#0c1a10" opacity="0.6"/>
    <rect x="590" y="220" width="6" height="8" fill="#0c1a10" opacity="0.6"/>
    <rect x="628" y="220" width="6" height="8" fill="#0c1a10" opacity="0.6"/>
    <rect x="666" y="220" width="6" height="8" fill="#0c1a10" opacity="0.6"/>
    <rect x="704" y="220" width="6" height="8" fill="#0c1a10" opacity="0.6"/>
    <rect x="742" y="220" width="6" height="8" fill="#0c1a10" opacity="0.6"/>
    <rect x="780" y="220" width="6" height="8" fill="#0c1a10" opacity="0.6"/>

    <!-- ── ROAD (runs beside track) ── -->
    <rect x="0" y="248" width="800" height="28" fill="#0c130e"/>
    <rect x="0" y="248" width="800" height="1"  fill="#1a2a1e" opacity="0.5"/>
    <rect x="0" y="275" width="800" height="1"  fill="#1a2a1e" opacity="0.5"/>
    <!-- Centre dashes -->
    <rect x="30"  y="261" width="30" height="2" fill="#1e2e22" opacity="0.7" rx="1"/>
    <rect x="110" y="261" width="30" height="2" fill="#1e2e22" opacity="0.7" rx="1"/>
    <rect x="190" y="261" width="30" height="2" fill="#1e2e22" opacity="0.7" rx="1"/>
    <rect x="270" y="261" width="30" height="2" fill="#1e2e22" opacity="0.7" rx="1"/>
    <rect x="350" y="261" width="30" height="2" fill="#1e2e22" opacity="0.7" rx="1"/>
    <rect x="430" y="261" width="30" height="2" fill="#1e2e22" opacity="0.7" rx="1"/>
    <rect x="510" y="261" width="30" height="2" fill="#1e2e22" opacity="0.7" rx="1"/>
    <rect x="590" y="261" width="30" height="2" fill="#1e2e22" opacity="0.7" rx="1"/>
    <rect x="670" y="261" width="30" height="2" fill="#1e2e22" opacity="0.7" rx="1"/>
    <rect x="750" y="261" width="30" height="2" fill="#1e2e22" opacity="0.7" rx="1"/>

    <!-- ── SCAN SWEEP ── -->
    <rect class="scanSweep" x="0" y="0" width="80" height="300"
          fill="url(#hlCone)" opacity="0.06"/>

    <!-- ── RAIN ── -->
    <!-- 55 drops with varied positions/speeds/delays -->
    <line class="rd" x1="22"  y1="0" x2="20"  y2="14" stroke="#7eb8ff" stroke-width="0.8" style="animation-duration:0.42s;animation-delay:0.00s"/>
    <line class="rd" x1="55"  y1="0" x2="53"  y2="14" stroke="#7eb8ff" stroke-width="0.7" style="animation-duration:0.38s;animation-delay:0.31s"/>
    <line class="rd" x1="88"  y1="0" x2="86"  y2="12" stroke="#7eb8ff" stroke-width="0.8" style="animation-duration:0.45s;animation-delay:0.78s"/>
    <line class="rd" x1="118" y1="0" x2="116" y2="15" stroke="#7eb8ff" stroke-width="0.6" style="animation-duration:0.40s;animation-delay:0.15s"/>
    <line class="rd" x1="148" y1="0" x2="146" y2="13" stroke="#7eb8ff" stroke-width="0.9" style="animation-duration:0.36s;animation-delay:0.55s"/>
    <line class="rd" x1="178" y1="0" x2="176" y2="14" stroke="#7eb8ff" stroke-width="0.7" style="animation-duration:0.43s;animation-delay:0.92s"/>
    <line class="rd" x1="210" y1="0" x2="208" y2="12" stroke="#7eb8ff" stroke-width="0.8" style="animation-duration:0.39s;animation-delay:0.22s"/>
    <line class="rd" x1="242" y1="0" x2="240" y2="15" stroke="#7eb8ff" stroke-width="0.6" style="animation-duration:0.46s;animation-delay:0.67s"/>
    <line class="rd" x1="272" y1="0" x2="270" y2="13" stroke="#7eb8ff" stroke-width="0.9" style="animation-duration:0.37s;animation-delay:1.10s"/>
    <line class="rd" x1="305" y1="0" x2="303" y2="14" stroke="#7eb8ff" stroke-width="0.7" style="animation-duration:0.44s;animation-delay:0.44s"/>
    <line class="rd" x1="335" y1="0" x2="333" y2="12" stroke="#7eb8ff" stroke-width="0.8" style="animation-duration:0.41s;animation-delay:0.08s"/>
    <line class="rd" x1="368" y1="0" x2="366" y2="15" stroke="#7eb8ff" stroke-width="0.6" style="animation-duration:0.35s;animation-delay:0.83s"/>
    <line class="rd" x1="398" y1="0" x2="396" y2="13" stroke="#7eb8ff" stroke-width="0.9" style="animation-duration:0.47s;animation-delay:0.36s"/>
    <line class="rd" x1="432" y1="0" x2="430" y2="14" stroke="#7eb8ff" stroke-width="0.7" style="animation-duration:0.40s;animation-delay:1.02s"/>
    <line class="rd" x1="462" y1="0" x2="460" y2="12" stroke="#7eb8ff" stroke-width="0.8" style="animation-duration:0.38s;animation-delay:0.58s"/>
    <line class="rd" x1="495" y1="0" x2="493" y2="15" stroke="#7eb8ff" stroke-width="0.6" style="animation-duration:0.43s;animation-delay:0.19s"/>
    <line class="rd" x1="525" y1="0" x2="523" y2="13" stroke="#7eb8ff" stroke-width="0.9" style="animation-duration:0.36s;animation-delay:0.74s"/>
    <line class="rd" x1="558" y1="0" x2="556" y2="14" stroke="#7eb8ff" stroke-width="0.7" style="animation-duration:0.44s;animation-delay:0.41s"/>
    <line class="rd" x1="588" y1="0" x2="586" y2="12" stroke="#7eb8ff" stroke-width="0.8" style="animation-duration:0.39s;animation-delay:0.95s"/>
    <line class="rd" x1="618" y1="0" x2="616" y2="15" stroke="#7eb8ff" stroke-width="0.6" style="animation-duration:0.46s;animation-delay:0.27s"/>
    <line class="rd" x1="652" y1="0" x2="650" y2="13" stroke="#7eb8ff" stroke-width="0.9" style="animation-duration:0.37s;animation-delay:0.62s"/>
    <line class="rd" x1="682" y1="0" x2="680" y2="14" stroke="#7eb8ff" stroke-width="0.7" style="animation-duration:0.42s;animation-delay:1.15s"/>
    <line class="rd" x1="714" y1="0" x2="712" y2="12" stroke="#7eb8ff" stroke-width="0.8" style="animation-duration:0.40s;animation-delay:0.48s"/>
    <line class="rd" x1="745" y1="0" x2="743" y2="15" stroke="#7eb8ff" stroke-width="0.6" style="animation-duration:0.35s;animation-delay:0.11s"/>
    <line class="rd" x1="778" y1="0" x2="776" y2="13" stroke="#7eb8ff" stroke-width="0.9" style="animation-duration:0.47s;animation-delay:0.86s"/>
    <!-- Second wave, offset positions -->
    <line class="rd" x1="38"  y1="0" x2="36"  y2="13" stroke="#7eb8ff" stroke-width="0.6" style="animation-duration:0.43s;animation-delay:0.52s"/>
    <line class="rd" x1="72"  y1="0" x2="70"  y2="15" stroke="#7eb8ff" stroke-width="0.8" style="animation-duration:0.38s;animation-delay:1.20s"/>
    <line class="rd" x1="105" y1="0" x2="103" y2="12" stroke="#7eb8ff" stroke-width="0.7" style="animation-duration:0.45s;animation-delay:0.33s"/>
    <line class="rd" x1="162" y1="0" x2="160" y2="14" stroke="#7eb8ff" stroke-width="0.8" style="animation-duration:0.41s;animation-delay:0.69s"/>
    <line class="rd" x1="225" y1="0" x2="223" y2="13" stroke="#7eb8ff" stroke-width="0.6" style="animation-duration:0.37s;animation-delay:0.05s"/>
    <line class="rd" x1="288" y1="0" x2="286" y2="15" stroke="#7eb8ff" stroke-width="0.9" style="animation-duration:0.44s;animation-delay:0.88s"/>
    <line class="rd" x1="352" y1="0" x2="350" y2="12" stroke="#7eb8ff" stroke-width="0.7" style="animation-duration:0.40s;animation-delay:0.24s"/>
    <line class="rd" x1="415" y1="0" x2="413" y2="14" stroke="#7eb8ff" stroke-width="0.8" style="animation-duration:0.36s;animation-delay:1.05s"/>
    <line class="rd" x1="478" y1="0" x2="476" y2="13" stroke="#7eb8ff" stroke-width="0.6" style="animation-duration:0.46s;animation-delay:0.46s"/>
    <line class="rd" x1="540" y1="0" x2="538" y2="15" stroke="#7eb8ff" stroke-width="0.9" style="animation-duration:0.39s;animation-delay:0.73s"/>
    <line class="rd" x1="603" y1="0" x2="601" y2="12" stroke="#7eb8ff" stroke-width="0.7" style="animation-duration:0.43s;animation-delay:0.17s"/>
    <line class="rd" x1="666" y1="0" x2="664" y2="14" stroke="#7eb8ff" stroke-width="0.8" style="animation-duration:0.38s;animation-delay:0.60s"/>
    <line class="rd" x1="728" y1="0" x2="726" y2="13" stroke="#7eb8ff" stroke-width="0.6" style="animation-duration:0.45s;animation-delay:0.98s"/>
    <line class="rd" x1="792" y1="0" x2="790" y2="15" stroke="#7eb8ff" stroke-width="0.9" style="animation-duration:0.42s;animation-delay:0.29s"/>

    <!-- ── TRAIN (animated group) ── -->
    <g class="train">
      <!-- Steam puffs above chimney (relative to train origin x=0, chimney at x≈30) -->
      <ellipse class="sp" cx="30" cy="148" rx="11" ry="7" fill="#c0d8e8" style="animation-duration:1.8s;animation-delay:0.0s"/>
      <ellipse class="sp" cx="30" cy="148" rx="9"  ry="6" fill="#c0d8e8" style="animation-duration:1.8s;animation-delay:0.6s"/>
      <ellipse class="sp" cx="30" cy="148" rx="7"  ry="5" fill="#c0d8e8" style="animation-duration:1.8s;animation-delay:1.2s"/>

      <!-- Headlight cone -->
      <polygon points="0,196 200,176 200,212" fill="url(#hlCone)" class="hlf"/>

      <!-- ENGINE BODY -->
      <rect x="0"  y="175" width="108" height="34" rx="3" fill="#1a2e3c"/>
      <!-- Top accent stripe -->
      <rect x="0"  y="175" width="108" height="5"  rx="2" fill="#7eb8ff" opacity="0.55"/>
      <!-- Bottom strip -->
      <rect x="0"  y="206" width="108" height="2"  fill="#7eb8ff" opacity="0.2"/>

      <!-- CAB -->
      <rect x="72" y="162" width="36" height="17" rx="2" fill="#142030"/>
      <!-- Cab windows lit -->
      <rect x="76" y="165" width="12" height="8" rx="1" fill="#7eb8ff" opacity="0.28"/>
      <rect x="92" y="165" width="10" height="8" rx="1" fill="#7eb8ff" opacity="0.20"/>

      <!-- CHIMNEY -->
      <rect x="26" y="162" width="8"  height="14" rx="1" fill="#0e1e2a"/>
      <rect x="23" y="159" width="14" height="5"  rx="1" fill="#1a2e3a"/>

      <!-- BOILER DETAIL bands -->
      <rect x="10" y="182" width="56" height="2" fill="#7eb8ff" opacity="0.12" rx="1"/>
      <rect x="10" y="190" width="56" height="2" fill="#7eb8ff" opacity="0.10" rx="1"/>

      <!-- HEADLIGHT -->
      <circle cx="3"  cy="192" r="5" fill="#7eb8ff" opacity="0.75"/>
      <circle cx="3"  cy="192" r="2.5" fill="#d8f0ff" opacity="0.95"/>

      <!-- DRIVE WHEELS -->
      <circle cx="24"  cy="209" r="10" fill="#0c1e2c" stroke="#7eb8ff" stroke-width="1.8"/>
      <circle cx="24"  cy="209" r="4"  fill="#7eb8ff" opacity="0.45"/>
      <circle cx="52"  cy="209" r="10" fill="#0c1e2c" stroke="#7eb8ff" stroke-width="1.8"/>
      <circle cx="52"  cy="209" r="4"  fill="#7eb8ff" opacity="0.45"/>
      <circle cx="78"  cy="209" r="7"  fill="#0c1e2c" stroke="#7eb8ff" stroke-width="1.2" opacity="0.8"/>
      <!-- Coupling rod -->
      <line x1="24" y1="209" x2="52" y2="209" stroke="#7eb8ff" stroke-width="1.2" opacity="0.3"/>

      <!-- TENDER -->
      <rect x="112" y="182" width="52" height="24" rx="2" fill="#0f1e2a"/>
      <rect x="112" y="182" width="52" height="4"  fill="#7eb8ff" opacity="0.2"/>
      <circle cx="124" cy="209" r="6" fill="#0c1e2c" stroke="#7eb8ff40" stroke-width="1"/>
      <circle cx="152" cy="209" r="6" fill="#0c1e2c" stroke="#7eb8ff40" stroke-width="1"/>

      <!-- CARRIAGE 1 -->
      <rect x="168" y="178" width="94" height="28" rx="2" fill="#0f1e28"/>
      <rect x="168" y="178" width="94" height="5"  fill="#7eb8ff" opacity="0.3"/>
      <rect x="168" y="203" width="94" height="1.5" fill="#7eb8ff" opacity="0.12"/>
      <!-- Windows -->
      <rect x="173" y="185" width="16" height="9" rx="1" fill="#7eb8ff" opacity="0.18"/>
      <rect x="196" y="185" width="16" height="9" rx="1" fill="#7eb8ff" opacity="0.14"/>
      <rect x="219" y="185" width="16" height="9" rx="1" fill="#7eb8ff" opacity="0.10"/>
      <rect x="242" y="185" width="14" height="9" rx="1" fill="#7eb8ff" opacity="0.08"/>
      <!-- Wheels -->
      <circle cx="182" cy="209" r="6.5" fill="#0f1e28" stroke="#7eb8ff" stroke-width="1.2"/>
      <circle cx="250" cy="209" r="6.5" fill="#0f1e28" stroke="#7eb8ff" stroke-width="1.2"/>

      <!-- CARRIAGE 2 -->
      <rect x="266" y="178" width="94" height="28" rx="2" fill="#0c1820"/>
      <rect x="266" y="178" width="94" height="5"  fill="#a0c8ff" opacity="0.22"/>
      <rect x="266" y="203" width="94" height="1.5" fill="#a0c8ff" opacity="0.10"/>
      <!-- Windows -->
      <rect x="271" y="185" width="16" height="9" rx="1" fill="#a0c8ff" opacity="0.14"/>
      <rect x="294" y="185" width="16" height="9" rx="1" fill="#a0c8ff" opacity="0.10"/>
      <rect x="317" y="185" width="16" height="9" rx="1" fill="#a0c8ff" opacity="0.08"/>
      <rect x="340" y="185" width="14" height="9" rx="1" fill="#a0c8ff" opacity="0.06"/>
      <!-- Wheels -->
      <circle cx="280" cy="209" r="6.5" fill="#0c1820" stroke="#7eb8ff40" stroke-width="1.2"/>
      <circle cx="348" cy="209" r="6.5" fill="#0c1820" stroke="#7eb8ff40" stroke-width="1.2"/>
    </g>

    <!-- ── SPEED LINES (behind car/train layer, on road) ── -->
    <line class="sl" x1="0" y1="256" x2="120" y2="256" stroke="#7eb8ff" stroke-width="0.8" opacity="0.5" style="animation-duration:1.9s;animation-delay:0.0s"/>
    <line class="sl" x1="0" y1="261" x2="80"  y2="261" stroke="#7eb8ff" stroke-width="0.6" opacity="0.4" style="animation-duration:2.2s;animation-delay:0.7s"/>
    <line class="sl" x1="0" y1="267" x2="100" y2="267" stroke="#7eb8ff" stroke-width="0.7" opacity="0.35" style="animation-duration:1.7s;animation-delay:1.4s"/>

    <!-- ── CAR (road, moving right to left) ── -->
    <g class="car">
      <!-- Headlight cone -->
      <polygon points="-8,264 200,250 200,278" fill="url(#carHL)"/>
      <!-- Body -->
      <path d="M2,270 L2,258 L16,258 L28,248 L104,248 L118,258 L150,258 L150,270Z" fill="#1a2e3a"/>
      <!-- Roof -->
      <path d="M28,248 L38,241 L96,241 L104,248Z" fill="#1e3545"/>
      <!-- Window left -->
      <path d="M30,248 L38,242 L60,242 L60,248Z" fill="#7eb8ff" opacity="0.22"/>
      <!-- Window right -->
      <path d="M62,248 L62,242 L94,242 L102,248Z" fill="#7eb8ff" opacity="0.18"/>
      <!-- Body highlight -->
      <line x1="2" y1="258" x2="150" y2="258" stroke="#7eb8ff" stroke-width="0.6" opacity="0.45"/>
      <!-- Headlights (front = left side, car moves left) -->
      <rect x="0"   y="260" width="7" height="4" rx="1" fill="#f8f8e0" opacity="0.95"/>
      <rect x="0"   y="260" width="7" height="4" rx="1" fill="#c8f8a0" opacity="0.4"/>
      <!-- Taillights -->
      <rect x="143" y="260" width="7" height="4" rx="1" fill="#ff5555" opacity="0.85"/>
      <!-- Wheels -->
      <circle cx="30"  cy="270" r="10" fill="#0c1820" stroke="#5a8aaa" stroke-width="1.6"/>
      <circle cx="30"  cy="270" r="4.5" fill="#0f2030" stroke="#7eb8ff50" stroke-width="0.8"/>
      <circle cx="112" cy="270" r="10" fill="#0c1820" stroke="#5a8aaa" stroke-width="1.6"/>
      <circle cx="112" cy="270" r="4.5" fill="#0f2030" stroke="#7eb8ff50" stroke-width="0.8"/>
    </g>

    <!-- ── HUD CORNERS ── -->
    <line x1="0"   y1="10"  x2="0"   y2="0"   stroke="#7eb8ff" stroke-width="1" opacity="0.25"/>
    <line x1="0"   y1="0"   x2="10"  y2="0"   stroke="#7eb8ff" stroke-width="1" opacity="0.25"/>
    <line x1="790" y1="0"   x2="800" y2="0"   stroke="#7eb8ff" stroke-width="1" opacity="0.25"/>
    <line x1="800" y1="0"   x2="800" y2="10"  stroke="#7eb8ff" stroke-width="1" opacity="0.25"/>
    <line x1="0"   y1="290" x2="0"   y2="300" stroke="#7eb8ff" stroke-width="1" opacity="0.25"/>
    <line x1="0"   y1="300" x2="10"  y2="300" stroke="#7eb8ff" stroke-width="1" opacity="0.25"/>
    <line x1="790" y1="300" x2="800" y2="300" stroke="#7eb8ff" stroke-width="1" opacity="0.25"/>
    <line x1="800" y1="290" x2="800" y2="300" stroke="#7eb8ff" stroke-width="1" opacity="0.25"/>

    <!-- ── CAPTION ── -->
    <text x="790" y="294" font-family="monospace" font-size="7" fill="#7eb8ff" opacity="0.22" text-anchor="end">NIGHT_PASS · SL</text>

  </g>
</svg>
